<svg width="154" height="154" viewBox="0 0 154 154" fill="none" xmlns="http://www.w3.org/2000/svg">
<path fill-rule="evenodd" clip-rule="evenodd" d="M0.935523 73.4489C29.589 58.5003 54.8273 51.026 76.6504 51.026C98.4483 51.026 123.916 58.4831 153.052 73.3972C153.907 73.8346 154.246 74.8835 153.81 75.7399C153.799 75.7608 153.788 75.7814 153.776 75.8019L147.89 86.2868L153.154 100.953C153.479 101.858 153.011 102.856 152.108 103.181C151.655 103.344 151.155 103.312 150.727 103.092C123.295 88.9977 98.965 81.9504 77.7377 81.9504C56.4 81.9504 31.5104 89.0712 3.06886 103.313C2.2105 103.742 1.16702 103.394 0.738173 102.533C0.540022 102.136 0.500993 101.677 0.629079 101.252L5.135 86.2868L0.166551 75.7367C-0.231766 74.8909 0.107752 73.8807 0.935523 73.4489Z" fill="url(#paint0_linear)"/>
<path opacity="0.9" fill-rule="evenodd" clip-rule="evenodd" d="M143.546 89.4792C120.592 85.6097 98.1026 83.6749 76.078 83.6749C54.0533 83.6749 32.3361 85.6097 10.9263 89.4792L12.9532 81.063L74.3406 61.909L130.226 73.8077L143.546 89.4792Z" fill="#D4D4E9"/>
<mask id="mask0" mask-type="alpha" maskUnits="userSpaceOnUse" x="21" y="15" width="112" height="124">
<path d="M84.1289 16.8527L125.901 40.9148C130.214 43.3996 132.874 48.0058 132.874 52.9923V101.008C132.874 105.994 130.214 110.6 125.901 113.085L84.1289 137.147C79.8405 139.618 74.5653 139.618 70.2769 137.147L28.5052 113.085C24.1916 110.6 21.5322 105.994 21.5322 101.008V52.9923C21.5322 48.0058 24.1916 43.3996 28.5052 40.9148L70.2769 16.8527C74.5653 14.3824 79.8405 14.3824 84.1289 16.8527Z" fill="white"/>
</mask>
<g mask="url(#mask0)">
<path d="M84.1289 16.8527L125.901 40.9148C130.214 43.3996 132.874 48.0058 132.874 52.9923V101.008C132.874 105.994 130.214 110.6 125.901 113.085L84.1289 137.147C79.8405 139.618 74.5653 139.618 70.2769 137.147L28.5052 113.085C24.1916 110.6 21.5322 105.994 21.5322 101.008V52.9923C21.5322 48.0058 24.1916 43.3996 28.5052 40.9148L70.2769 16.8527C74.5653 14.3824 79.8405 14.3824 84.1289 16.8527Z" fill="#C58DF5"/>
<path fill-rule="evenodd" clip-rule="evenodd" d="M18.7112 109.214L56.6439 88.8987L80.0985 101.958L84.442 144.619H54.9065L18.7112 109.214Z" fill="#B262F0"/>
<path fill-rule="evenodd" clip-rule="evenodd" d="M20.159 43.9158L49.4048 60.1677L49.5496 93.5421L17.5529 112.406L12.9199 52.0418L20.159 43.9158Z" fill="#BD77F3"/>
</g>
<mask id="mask1" mask-type="alpha" maskUnits="userSpaceOnUse" x="76" y="15" width="57" height="124">
<path d="M76.6238 15.1848C80.9672 15.1848 79.8405 14.3824 84.1289 16.8527L125.901 40.9148C130.214 43.3996 132.874 48.0058 132.874 52.9923V101.008C132.874 105.994 130.214 110.6 125.901 113.085L84.1289 137.147C79.8405 139.618 81.2568 138.815 76.6238 138.815" fill="white"/>
</mask>
<g mask="url(#mask1)">
<path d="M76.6238 15.1848C80.9672 15.1848 79.8405 14.3824 84.1289 16.8527L125.901 40.9148C130.214 43.3996 132.874 48.0058 132.874 52.9923V101.008C132.874 105.994 130.214 110.6 125.901 113.085L84.1289 137.147C79.8405 139.618 81.2568 138.815 76.6238 138.815" fill="#A140EE"/>
<path fill-rule="evenodd" clip-rule="evenodd" d="M108.476 93.5422L141.486 116.179L74.8864 144.62L73.4386 110.084L108.476 93.5422Z" fill="#942EE4"/>
<path fill-rule="evenodd" clip-rule="evenodd" d="M107.607 60.7482L136.853 43.0453L75.176 8.80023L74.3073 43.0453L107.607 60.7482Z" fill="#B45EF8"/>
</g>
<path fill-rule="evenodd" clip-rule="evenodd" d="M81.5223 40.3024L106.94 54.902C109.641 56.4536 111.307 59.3354 111.307 62.4558V91.5442C111.307 94.6646 109.641 97.5464 106.94 99.098L81.5223 113.698C78.8468 115.234 75.559 115.234 72.8835 113.698L47.4658 99.098C44.7645 97.5464 43.0983 94.6646 43.0983 91.5442V62.4558C43.0983 59.3354 44.7645 56.4536 47.4658 54.902L72.8835 40.3024C75.559 38.7656 78.8468 38.7656 81.5223 40.3024Z" fill="#E7CAFF"/>
<path d="M77.0917 97.4752C78.2338 97.4752 79.2347 97.2778 80.0945 96.8831C80.9543 96.4884 81.6172 95.926 82.0832 95.1958C82.5492 94.4657 82.7822 93.6138 82.7822 92.6402C82.7822 91.7456 82.5919 90.9562 82.2112 90.2721C81.8305 89.588 81.2989 89.0551 80.6163 88.6736C79.9337 88.2921 79.1592 88.1013 78.2928 88.1013C77.5446 88.1013 76.9014 88.2263 76.3632 88.4763V86.0686H82.034V83.2664H72.7796V91.5943H74.8077C75.1752 91.3969 75.5723 91.2358 75.9989 91.1108C76.4255 90.9858 76.8226 90.9233 77.1902 90.9233C77.8597 90.9233 78.3814 91.0845 78.7556 91.4068C79.1297 91.7291 79.3167 92.1929 79.3167 92.7981C79.3167 93.4164 79.1395 93.8736 78.7851 94.1696C78.4307 94.4656 77.8859 94.6137 77.1508 94.6137C75.8512 94.6137 74.5976 94.1927 73.39 93.3507L72.2479 95.9753C72.7861 96.4227 73.5015 96.7844 74.3942 97.0607C75.2868 97.337 76.186 97.4752 77.0917 97.4752Z" fill="#202842"/>
<mask id="mask2" mask-type="alpha" maskUnits="userSpaceOnUse" x="10" y="39" width="134" height="51">
<path d="M11.012 59.2294C32.5326 46.0215 54.321 39.4175 76.3772 39.4175C98.4351 39.4175 120.671 46.0225 143.086 59.2325C143.44 59.441 143.658 59.8217 143.658 60.2332V88.4353C143.658 89.0764 143.139 89.5961 142.499 89.5961C142.29 89.5961 142.085 89.5394 141.906 89.432C120.635 76.7053 99.1549 70.3419 77.4667 70.3419C55.7609 70.3419 34.0055 76.7157 12.2005 89.4631C11.6479 89.7861 10.9387 89.5991 10.6164 89.0453C10.5131 88.8678 10.4586 88.6659 10.4586 88.4604V60.2194C10.4586 59.8154 10.6682 59.4404 11.012 59.2294Z" fill="white"/>
</mask>
<g mask="url(#mask2)">
<g filter="url(#filter0_d)">
<path d="M11.012 59.2294C32.5326 46.0215 54.321 39.4175 76.3772 39.4175C98.4351 39.4175 120.671 46.0225 143.086 59.2325C143.44 59.441 143.658 59.8217 143.658 60.2332V88.4353C143.658 89.0764 143.139 89.5961 142.499 89.5961C142.29 89.5961 142.085 89.5394 141.906 89.432C120.635 76.7053 99.1549 70.3419 77.4667 70.3419C55.7609 70.3419 34.0055 76.7157 12.2005 89.4631C11.6479 89.7861 10.9387 89.5991 10.6164 89.0453C10.5131 88.8678 10.4586 88.6659 10.4586 88.4604V60.2194C10.4586 59.8154 10.6682 59.4404 11.012 59.2294Z" fill="black"/>
</g>
<path d="M11.012 59.2294C32.5326 46.0215 54.321 39.4175 76.3772 39.4175C98.4351 39.4175 120.671 46.0225 143.086 59.2325C143.44 59.441 143.658 59.8217 143.658 60.2332V88.4353C143.658 89.0764 143.139 89.5961 142.499 89.5961C142.29 89.5961 142.085 89.5394 141.906 89.432C120.635 76.7053 99.1549 70.3419 77.4667 70.3419C55.7609 70.3419 34.0055 76.7157 12.2005 89.4631C11.6479 89.7861 10.9387 89.5991 10.6164 89.0453C10.5131 88.8678 10.4586 88.6659 10.4586 88.4604V60.2194C10.4586 59.8154 10.6682 59.4404 11.012 59.2294Z" fill="#F8F8FB"/>
<path fill-rule="evenodd" clip-rule="evenodd" d="M76.9467 34.9191V76.4195L147.89 93.542V56.3948C133.262 47.5823 121.969 41.9715 114.011 39.5625C106.053 37.1535 93.6981 35.6057 76.9467 34.9191Z" fill="#F1F1F8"/>
</g>
<path d="M63.1872 63.36V60.3604H57.2604V49.3091H53.5587V63.36H63.1872ZM69.8819 63.5179C70.5908 63.5179 71.2996 63.4126 72.0085 63.2021C72.7173 62.9916 73.3211 62.7022 73.82 62.3338L72.9142 59.9657C72.5073 60.2551 72.0544 60.4821 71.5556 60.6465C71.0568 60.811 70.5579 60.8932 70.0591 60.8932C69.324 60.8932 68.7661 60.7222 68.3854 60.3801C68.0048 60.038 67.7816 59.4789 67.716 58.7027H73.9972V58.229C73.9972 57.1897 73.8068 56.2786 73.4262 55.4958C73.0455 54.713 72.5007 54.1111 71.7919 53.6901C71.083 53.2691 70.256 53.0586 69.3109 53.0586C68.3395 53.0586 67.4764 53.2823 66.7216 53.7296C65.9668 54.1769 65.3761 54.7985 64.9495 55.5945C64.5229 56.3904 64.3096 57.2949 64.3096 58.308C64.3096 59.3736 64.5327 60.2979 64.979 61.0807C65.4253 61.8635 66.0686 62.4654 66.9087 62.8864C67.7488 63.3074 68.7399 63.5179 69.8819 63.5179ZM70.9452 57.045H67.7554C67.9785 56.0188 68.5298 55.5057 69.4093 55.5057C70.302 55.5057 70.8139 56.0188 70.9452 57.045ZM81.5386 63.36L85.9886 53.3546H82.4837L80.1602 59.1171L77.9155 53.3546H74.2138L78.6047 63.36H81.5386ZM91.7775 63.5179C92.4864 63.5179 93.1952 63.4126 93.9041 63.2021C94.6129 62.9916 95.2167 62.7022 95.7156 62.3338L94.8098 59.9657C94.4029 60.2551 93.95 60.4821 93.4512 60.6465C92.9524 60.811 92.4535 60.8932 91.9547 60.8932C91.2196 60.8932 90.6617 60.7222 90.281 60.3801C89.9004 60.038 89.6772 59.4789 89.6116 58.7027H95.8928V58.229C95.8928 57.1897 95.7024 56.2786 95.3218 55.4958C94.9411 54.713 94.3963 54.1111 93.6875 53.6901C92.9786 53.2691 92.1516 53.0586 91.2065 53.0586C90.2351 53.0586 89.372 53.2823 88.6172 53.7296C87.8624 54.1769 87.2717 54.7985 86.8451 55.5945C86.4185 56.3904 86.2052 57.2949 86.2052 58.308C86.2052 59.3736 86.4283 60.2979 86.8746 61.0807C87.3209 61.8635 87.9642 62.4654 88.8043 62.8864C89.6444 63.3074 90.6355 63.5179 91.7775 63.5179ZM92.8408 57.045H89.651C89.8741 56.0188 90.4254 55.5057 91.3049 55.5057C92.1976 55.5057 92.7095 56.0188 92.8408 57.045ZM101.111 63.36V48.8354H97.5468V63.36H101.111Z" fill="#202842"/>
<defs>
<filter id="filter0_d" x="4.74034" y="38.2739" width="144.636" height="61.6404" filterUnits="userSpaceOnUse" color-interpolation-filters="sRGB">
<feFlood flood-opacity="0" result="BackgroundImageFix"/>
<feColorMatrix in="SourceAlpha" type="matrix" values="0 0 0 0 0 0 0 0 0 0 0 0 0 0 0 0 0 0 127 0"/>
<feOffset dy="4.57463"/>
<feGaussianBlur stdDeviation="2.85914"/>
<feColorMatrix type="matrix" values="0 0 0 0 0.809003 0 0 0 0 0.809003 0 0 0 0 0.914459 0 0 0 1 0"/>
<feBlend mode="normal" in2="BackgroundImageFix" result="effect1_dropShadow"/>
<feBlend mode="normal" in="SourceGraphic" in2="effect1_dropShadow" result="shape"/>
</filter>
<linearGradient id="paint0_linear" x1="0" y1="86.0045" x2="154" y2="86.0045" gradientUnits="userSpaceOnUse">
<stop stop-color="#F0F0F8"/>
<stop offset="1" stop-color="#DDDDEE"/>
</linearGradient>
</defs>
</svg>
